<?xml version="1.0" encoding="UTF-8" standalone="no" ?>
<!DOCTYPE svg PUBLIC "-//W3C//DTD SVG 1.1//EN" "http://www.w3.org/Graphics/SVG/1.1/DTD/svg11.dtd">
<svg xmlns="http://www.w3.org/2000/svg" xmlns:xlink="http://www.w3.org/1999/xlink" version="1.1" width="256" height="361" viewBox="0 0 256 361" xml:space="preserve">
<desc>Created with Fabric.js 3.6.6</desc>
<defs>
</defs>
<g transform="matrix(1 0 0 1 128 215.43)"  >
<path style="stroke: none; stroke-width: 1; stroke-dasharray: none; stroke-linecap: butt; stroke-dashoffset: 0; stroke-linejoin: miter; stroke-miterlimit: 4; fill: rgb(228,77,38); fill-rule: nonzero; opacity: 1;"  transform=" translate(-128, -215.43)" d="M 255.554813 70.7657143 L 232.31367 331.125451 L 127.843868 360.087912 L 23.6617143 331.166242 L 0.445186813 70.7657143 L 255.554813 70.7657143 L 255.554813 70.7657143 Z" stroke-linecap="round" />
</g>
<g transform="matrix(1 0 0 1 180.14 215.01)"  >
<path style="stroke: none; stroke-width: 1; stroke-dasharray: none; stroke-linecap: butt; stroke-dashoffset: 0; stroke-linejoin: miter; stroke-miterlimit: 4; fill: rgb(241,101,41); fill-rule: nonzero; opacity: 1;"  transform=" translate(-180.14, -215)" d="M 128 337.950242 L 212.416703 314.546637 L 232.277802 92.0573187 L 128 92.0573187 L 128 337.950242 L 128 337.950242 Z" stroke-linecap="round" />
</g>
<g transform="matrix(1 0 0 1 87.96 172.28)"  >
<path style="stroke: none; stroke-width: 1; stroke-dasharray: none; stroke-linecap: butt; stroke-dashoffset: 0; stroke-linejoin: miter; stroke-miterlimit: 4; fill: rgb(235,235,235); fill-rule: nonzero; opacity: 1;"  transform=" translate(-87.96, -172.28)" d="M 82.8202198 155.932132 L 128 155.932132 L 128 123.994725 L 47.917011 123.994725 L 48.6814945 132.562989 L 56.530989 220.572835 L 128 220.572835 L 128 188.636132 L 85.7389011 188.636132 L 82.8202198 155.932132 L 82.8202198 155.932132 Z" stroke-linecap="round" />
</g>
<g transform="matrix(1 0 0 1 92.98 270.69)"  >
<path style="stroke: none; stroke-width: 1; stroke-dasharray: none; stroke-linecap: butt; stroke-dashoffset: 0; stroke-linejoin: miter; stroke-miterlimit: 4; fill: rgb(235,235,235); fill-rule: nonzero; opacity: 1;"  transform=" translate(-92.98, -270.7)" d="M 90.0177582 236.54189 L 57.957978 236.54189 L 62.4323516 286.687648 L 127.853011 304.848879 L 128 304.808088 L 128 271.580132 L 127.860044 271.617407 L 92.2915165 262.013187 L 90.0177582 236.54189 L 90.0177582 236.54189 Z" stroke-linecap="round" />
</g>
<g transform="matrix(1 0 0 1 47.83 24.28)"  >
<path style="stroke: none; stroke-width: 1; stroke-dasharray: none; stroke-linecap: butt; stroke-dashoffset: 0; stroke-linejoin: miter; stroke-miterlimit: 4; fill: rgb(255,255,255); fill-rule: nonzero; opacity: 1;"  transform=" translate(-47.83, -24.28)" d="M 24.1807473 0 L 40.4107253 0 L 40.4107253 16.0351648 L 55.2573187 16.0351648 L 55.2573187 0 L 71.488 0 L 71.488 48.5584176 L 55.258022 48.5584176 L 55.258022 32.2981978 L 40.4114286 32.2981978 L 40.4114286 48.5584176 L 24.1814505 48.5584176 L 24.1814505 0 L 24.1807473 0 L 24.1807473 0 Z" stroke-linecap="round" />
</g>
<g transform="matrix(1 0 0 1 100.95 24.28)"  >
<path style="stroke: none; stroke-width: 1; stroke-dasharray: none; stroke-linecap: butt; stroke-dashoffset: 0; stroke-linejoin: miter; stroke-miterlimit: 4; fill: rgb(255,255,255); fill-rule: nonzero; opacity: 1;"  transform=" translate(-100.95, -24.28)" d="M 92.8309451 16.1026813 L 78.5427692 16.1026813 L 78.5427692 0 L 123.356835 0 L 123.356835 16.1026813 L 109.06233 16.1026813 L 109.06233 48.5584176 L 92.8316484 48.5584176 L 92.8316484 16.1026813 L 92.8309451 16.1026813 L 92.8309451 16.1026813 Z" stroke-linecap="round" />
</g>
<g transform="matrix(1 0 0 1 157.8 24.28)"  >
<path style="stroke: none; stroke-width: 1; stroke-dasharray: none; stroke-linecap: butt; stroke-dashoffset: 0; stroke-linejoin: miter; stroke-miterlimit: 4; fill: rgb(255,255,255); fill-rule: nonzero; opacity: 1;"  transform=" translate(-157.8, -24.28)" d="M 130.469275 0 L 147.392703 0 L 157.802901 17.061978 L 168.202549 0 L 185.132308 0 L 185.132308 48.5584176 L 168.969143 48.5584176 L 168.969143 24.4901978 L 157.802901 41.7554286 L 157.523692 41.7554286 L 146.349714 24.4901978 L 146.349714 48.5584176 L 130.469275 48.5584176 L 130.469275 0 L 130.469275 0 Z" stroke-linecap="round" />
</g>
<g transform="matrix(1 0 0 1 213.74 24.28)"  >
<path style="stroke: none; stroke-width: 1; stroke-dasharray: none; stroke-linecap: butt; stroke-dashoffset: 0; stroke-linejoin: miter; stroke-miterlimit: 4; fill: rgb(255,255,255); fill-rule: nonzero; opacity: 1;"  transform=" translate(-212.74, -24.28)" d="M 193.20967 0 L 209.444571 0 L 209.444571 32.5077802 L 232.268659 32.5077802 L 232.268659 48.5584176 L 193.20967 48.5584176 L 193.20967 0 L 193.20967 0 Z" stroke-linecap="round" />
</g>
<g transform="matrix(1 0 0 1 165.01 246.74)"  >
<path style="stroke: none; stroke-width: 1; stroke-dasharray: none; stroke-linecap: butt; stroke-dashoffset: 0; stroke-linejoin: miter; stroke-miterlimit: 4; fill: rgb(255,255,255); fill-rule: nonzero; opacity: 1;"  transform=" translate(-165.01, -246.73)" d="M 127.889582 220.572835 L 167.216527 220.572835 L 163.509451 261.992791 L 127.889582 271.606857 L 127.889582 304.833407 L 193.362286 286.687648 L 193.842637 281.291956 L 201.347516 197.212132 L 202.126769 188.636132 L 127.889582 188.636132 L 127.889582 220.572835 L 127.889582 220.572835 Z" stroke-linecap="round" />
</g>
<g transform="matrix(1 0 0 1 167.89 139.96)"  >
<path style="stroke: none; stroke-width: 1; stroke-dasharray: none; stroke-linecap: butt; stroke-dashoffset: 0; stroke-linejoin: miter; stroke-miterlimit: 4; fill: rgb(255,255,255); fill-rule: nonzero; opacity: 1;"  transform=" translate(-167.89, -139.96)" d="M 127.889582 155.854066 L 127.889582 155.932132 L 205.032791 155.932132 L 205.673495 148.753582 L 207.128615 132.562989 L 207.892396 123.994725 L 127.889582 123.994725 L 127.889582 155.854066 L 127.889582 155.854066 Z" stroke-linecap="round" />
</g>
</svg>